<svg width="109" height="25" viewBox="0 0 109 25" fill="none" xmlns="http://www.w3.org/2000/svg">
<path d="M3.55812 15.3867L9.24172 16.2422L8.62062 18.7969L6.85109 18.5625C4.24953 18.2031 2.29641 17.8477 0.991718 17.4961L0.839375 3.98438C3.59719 3.28125 6.22219 2.80859 8.71437 2.56641L9.12453 5.35547L3.51125 6L3.62844 9.50391L8.6675 9.29297L8.48 12.0469L3.65187 11.8828L3.55812 15.3867ZM11.5302 1.27734L14.4364 0.738281L14.5184 9.1875L14.1552 18L11.6825 18.2109L11.5302 1.27734ZM16.9358 10.1953C16.9358 9.14844 17.0452 8.54297 17.2639 8.37891C17.4827 8.21484 17.7288 8.05078 18.0022 7.88672C18.2756 7.71484 18.5764 7.54688 18.9045 7.38281C19.2327 7.21875 19.5725 7.0625 19.9241 6.91406C20.2834 6.76562 20.635 6.63281 20.9788 6.51562C21.7131 6.26562 22.26 6.14062 22.6194 6.14062C22.9866 6.14062 23.2834 6.16016 23.51 6.19922C23.7366 6.23047 23.9436 6.28516 24.1311 6.36328C24.5608 6.54297 24.803 6.80469 24.8577 7.14844C25.1155 8.78125 25.2444 10.7266 25.2444 12.9844V13.6758L19.6311 13.7461V15.2695C20.2405 15.418 20.967 15.5547 21.8108 15.6797L23.8264 16.0078C24.342 16.0859 24.8694 16.1758 25.4084 16.2773L24.717 18.8438C22.5686 18.5078 20.2873 17.9648 17.8733 17.2148C17.3186 17.0352 17.0334 16.7109 17.0178 16.2422L16.9358 10.1953ZM22.6077 11.1562C22.6077 10.4219 22.5334 9.64844 22.385 8.83594C22.0725 8.83594 21.8225 8.85156 21.635 8.88281C21.4475 8.91406 21.26 8.95703 21.0725 9.01172C20.885 9.06641 20.6936 9.12891 20.4983 9.19922C20.0373 9.36328 19.7327 9.50391 19.5842 9.62109V11.7305L22.6077 11.4023V11.1562ZM27.8844 3.69141L30.7437 3.14062V6.82031L33.6852 6.26953L33.9078 8.92969L30.7906 9.16406L30.568 15.5039C31.1461 15.6836 31.6461 15.8242 32.068 15.9258C33.1227 16.1758 33.7672 16.332 34.0016 16.3945L33.3805 18.8438C31.6461 18.4609 30.1266 18.0195 28.8219 17.5195C28.2906 17.3242 28.025 16.9727 28.025 16.4648L27.8844 3.69141ZM35.915 8.90625L35.8916 6.73828L38.3877 6.48047L38.7978 8.26172L40.5908 6.29297H41.9853L42.5713 9.03516C42.5713 9.03516 41.958 9.16797 40.7314 9.43359C40.1455 9.55859 39.54 9.69531 38.915 9.84375L38.7509 17.8594L36.1025 18.0938L35.915 8.90625ZM46.8519 0.363281C46.9378 0.667969 46.9808 1.01172 46.9808 1.39453C46.9808 1.76953 46.9691 2.08984 46.9456 2.35547C46.9222 2.61328 46.8948 2.85547 46.8636 3.08203C46.7855 3.57422 46.6956 3.91016 46.5941 4.08984L43.8988 3.97266C44.0316 3.28516 44.098 2.1875 44.098 0.679688L46.8519 0.363281ZM46.7581 6.26953C46.7972 7.07422 46.8167 7.75 46.8167 8.29688C46.8167 8.84375 46.805 9.48438 46.7816 10.2188L46.512 18L44.0159 18.2109L43.7816 6.64453L46.7581 6.26953ZM50.9802 17.25C50.6598 17.1328 50.4606 17.0469 50.3825 16.9922C50.3044 16.9297 50.2341 16.8516 50.1716 16.7578C49.82 16.2266 49.5661 14.6484 49.4098 12.0234C49.3708 11.4375 49.3512 10.8633 49.3512 10.3008C49.3512 9.73828 49.363 9.21875 49.3864 8.74219C49.4098 8.25781 49.4411 7.80078 49.4802 7.37109C49.5661 6.40234 49.6442 5.82031 49.7145 5.625L49.8552 5.17969C49.9802 4.80469 50.2653 4.52734 50.7106 4.34766C50.9059 4.26953 51.1598 4.17969 51.4723 4.07812L52.5036 3.72656C52.8864 3.60938 53.2848 3.49219 53.6989 3.375L54.8942 3.02344C55.6989 2.79688 56.3786 2.625 56.9333 2.50781L57.5661 5.35547C57.3708 5.40234 57.1325 5.45312 56.8512 5.50781L53.9919 6.04688L53.1833 6.21094C52.9489 6.26562 52.7731 6.30859 52.6559 6.33984C52.4372 7.21484 52.3278 8.48438 52.3278 10.1484C52.3278 12.3203 52.4606 13.9219 52.7262 14.9531C53.0544 15.0312 53.4098 15.1094 53.7927 15.1875L56.2067 15.6797L57.3434 15.8906L56.6872 18.5977C55.9841 18.4727 55.3434 18.3398 54.7653 18.1992C52.57 17.6758 51.3083 17.3594 50.9802 17.25ZM65.4912 11.4961C65.4912 10.3789 65.4444 9.5625 65.3506 9.04688H64.5303C64.0616 9.04688 63.6983 9.09375 63.4405 9.1875C63.0264 9.32812 62.6944 9.45703 62.4444 9.57422L62.2686 17.8594L59.7256 18C59.7022 14.9922 59.6592 12.7188 59.5967 11.1797C59.503 9.10938 59.4561 7.32031 59.4561 5.8125C59.4561 4.79688 59.4756 3.29297 59.5147 1.30078L62.3155 0.714844L62.4444 8.13281L64.3077 6.48047H66.9092C67.1983 6.48047 67.4639 6.58984 67.7061 6.80859C68.1358 7.20703 68.3584 7.55859 68.3741 7.86328C68.3897 8.16797 68.3975 8.47656 68.3975 8.78906V9.70312C68.3975 10.75 68.3819 11.5 68.3506 11.9531L67.9873 18.4102L65.3858 18.8438L65.4912 11.4961ZM79.0063 18.8438C75.7875 18.5156 73.2641 18.0273 71.4359 17.3789C71.1 17.2539 70.8773 16.5352 70.768 15.2227C70.6742 14.0195 70.7758 12.9766 71.0727 12.0938C71.1977 11.7266 71.3461 11.5234 71.518 11.4844C72.2523 11.2891 73.0258 11.1484 73.8383 11.0625L76.2758 10.793L76.2289 9.14062C75.3773 8.97656 74.5297 8.84766 73.6859 8.75391C72.85 8.65234 72.018 8.53516 71.1898 8.40234L71.8109 5.83594L73.7914 6.12891C75.6039 6.39453 77.0453 6.71875 78.1156 7.10156C78.6313 7.28906 78.8891 7.66797 78.8891 8.23828L78.9359 14.6602L76.4398 14.9062L76.3695 12.9023L75.7016 13.0312C74.9516 13.1562 74.2367 13.3125 73.557 13.5C73.4711 13.9141 73.4281 14.2578 73.4281 14.5312C73.4281 14.9297 73.4438 15.2383 73.475 15.457C74.5766 15.707 76.2758 15.9609 78.5727 16.2188L79.5336 16.3242L79.0063 18.8438ZM81.5056 8.90625L81.4822 6.73828L83.9783 6.48047L84.3884 8.26172L86.1814 6.29297H87.5759L88.1619 9.03516C88.1619 9.03516 87.5486 9.16797 86.322 9.43359C85.7361 9.55859 85.1306 9.69531 84.5056 9.84375L84.3416 17.8594L81.6931 18.0938L81.5056 8.90625ZM92.5245 15.5273C93.5558 15.5273 94.3644 15.4883 94.9503 15.4102L94.9034 10.418L97.5167 9.9375C97.548 11.4453 97.5714 12.7344 97.587 13.8047C97.6105 14.8672 97.63 15.7617 97.6456 16.4883C97.6613 17.2148 97.673 17.793 97.6808 18.2227L97.7042 19.2188C97.7042 19.4453 97.7042 19.5938 97.7042 19.6641V19.8047C97.7042 20.2031 97.4073 20.6133 96.8136 21.0352C95.0011 22.3086 93.1534 23.4414 91.2706 24.4336L89.8409 21.8672C92.3956 20.6719 94.173 19.7852 95.173 19.207L94.9972 16.5352L93.3214 18H91.3761C90.8214 18 90.4542 17.8125 90.2745 17.4375L90.1105 17.0859C89.3995 15.375 89.0441 13.1875 89.0441 10.5234C89.0441 9 89.1573 8.03906 89.3839 7.64062C89.4698 7.48438 89.7238 7.34375 90.1456 7.21875C90.5753 7.08594 91.1105 6.94531 91.7511 6.79688C92.3995 6.64062 93.0558 6.49609 93.7198 6.36328C94.3839 6.23047 95.048 6.10547 95.712 5.98828L97.6456 5.63672L98.2198 8.33203L94.5284 8.90625C93.1691 9.125 92.3253 9.29297 91.9972 9.41016C91.9191 9.72266 91.88 10.1562 91.88 10.7109C91.88 12.7109 92.0948 14.3164 92.5245 15.5273ZM100.25 10.1953C100.25 9.14844 100.36 8.54297 100.579 8.37891C100.797 8.21484 101.043 8.05078 101.317 7.88672C101.59 7.71484 101.891 7.54688 102.219 7.38281C102.547 7.21875 102.887 7.0625 103.239 6.91406C103.598 6.76562 103.95 6.63281 104.293 6.51562C105.028 6.26562 105.575 6.14062 105.934 6.14062C106.301 6.14062 106.598 6.16016 106.825 6.19922C107.051 6.23047 107.258 6.28516 107.446 6.36328C107.875 6.54297 108.118 6.80469 108.172 7.14844C108.43 8.78125 108.559 10.7266 108.559 12.9844V13.6758L102.946 13.7461V15.2695C103.555 15.418 104.282 15.5547 105.125 15.6797L107.141 16.0078C107.657 16.0859 108.184 16.1758 108.723 16.2773L108.032 18.8438C105.883 18.5078 103.602 17.9648 101.188 17.2148C100.633 17.0352 100.348 16.7109 100.333 16.2422L100.25 10.1953ZM105.922 11.1562C105.922 10.4219 105.848 9.64844 105.7 8.83594C105.387 8.83594 105.137 8.85156 104.95 8.88281C104.762 8.91406 104.575 8.95703 104.387 9.01172C104.2 9.06641 104.008 9.12891 103.813 9.19922C103.352 9.36328 103.047 9.50391 102.899 9.62109V11.7305L105.922 11.4023V11.1562Z" fill="white"/>
</svg>
