<svg width="25" height="32" viewBox="0 0 25 32" fill="none" xmlns="http://www.w3.org/2000/svg">
<circle cx="12.5" cy="13.25" r="11.5" fill="white" stroke="black" stroke-width="2"/>
<path d="M10.5605 15.5005V14.814C10.5605 14.2202 10.6873 13.7038 10.9409 13.2646C11.1945 12.8255 11.6584 12.3586 12.3325 11.8638C12.9819 11.3999 13.4087 11.0226 13.6128 10.7319C13.8231 10.4412 13.9282 10.1165 13.9282 9.75781C13.9282 9.35579 13.7798 9.04964 13.4829 8.83936C13.186 8.62907 12.7716 8.52393 12.2397 8.52393C11.312 8.52393 10.2544 8.82699 9.06689 9.43311L8.05566 7.40137C9.4349 6.62826 10.8976 6.2417 12.4438 6.2417C13.7179 6.2417 14.7292 6.54785 15.4775 7.16016C16.2321 7.77246 16.6094 8.58887 16.6094 9.60938C16.6094 10.2897 16.4548 10.8773 16.1455 11.3721C15.8363 11.8669 15.2487 12.4235 14.3828 13.042C13.7891 13.4811 13.4118 13.8151 13.251 14.0439C13.0964 14.2728 13.019 14.5728 13.019 14.9438V15.5005H10.5605ZM10.2637 18.6733C10.2637 18.1538 10.4028 17.7611 10.6812 17.4951C10.9595 17.2292 11.3646 17.0962 11.8965 17.0962C12.4098 17.0962 12.8057 17.2323 13.084 17.5044C13.3685 17.7765 13.5107 18.1662 13.5107 18.6733C13.5107 19.1619 13.3685 19.5485 13.084 19.833C12.7995 20.1113 12.4036 20.2505 11.8965 20.2505C11.377 20.2505 10.9749 20.1144 10.6904 19.8423C10.4059 19.564 10.2637 19.1743 10.2637 18.6733Z" fill="black"/>
</svg>
