<svg width="36" height="36" viewBox="0 0 36 36" fill="none" xmlns="http://www.w3.org/2000/svg">
<path d="M21.134 2.65488C21.322 2.65672 21.5033 2.72346 21.6459 2.8433C21.7884 2.96314 21.883 3.12836 21.9129 3.30975L22.5107 7.36284C23.4859 7.74543 24.4055 8.25121 25.2462 8.86727L29.0685 7.36284C29.1583 7.3461 29.2505 7.3461 29.3403 7.36284C29.4776 7.36263 29.6123 7.39871 29.7304 7.46726C29.8484 7.53581 29.9452 7.63428 30.0105 7.75222L33.1626 13.062C33.2542 13.2207 33.2844 13.4062 33.2478 13.5848C33.2112 13.7634 33.1103 13.9233 32.9634 14.0354L29.6482 16.5841C29.7932 17.5702 29.7932 18.5714 29.6482 19.5575L32.9634 22.1062C33.1074 22.2207 33.2047 22.3817 33.2379 22.5602C33.2712 22.7387 33.238 22.9229 33.1445 23.0796L30.0105 28.3894C29.9423 28.5049 29.8448 28.6014 29.7275 28.6696C29.6101 28.7378 29.4768 28.7754 29.3403 28.7787C29.2446 28.7973 29.1461 28.7973 29.0504 28.7787L25.2462 27.0973C24.4274 27.7071 23.5326 28.2127 22.5832 28.6018L22.0035 32.6549C21.9736 32.8362 21.879 33.0015 21.7365 33.1213C21.5939 33.2411 21.4126 33.3079 21.2246 33.3097H14.866C14.677 33.3115 14.4937 33.2461 14.3503 33.1256C14.207 33.0051 14.1134 32.8378 14.0871 32.6549L13.4893 28.6018C12.5457 28.2124 11.6569 27.7068 10.8444 27.0973L6.93146 28.6018C6.84169 28.6185 6.74949 28.6185 6.65973 28.6018C6.52244 28.602 6.38765 28.5659 6.26965 28.4973C6.15165 28.4288 6.05483 28.3303 5.98945 28.2124L2.83737 22.9026C2.74585 22.7439 2.71562 22.5584 2.75219 22.3798C2.78875 22.2012 2.88968 22.0413 3.03664 21.9292L6.35176 19.3805C6.18252 18.3963 6.18252 17.3913 6.35176 16.4071L3.03664 13.9469C2.88968 13.8348 2.78875 13.6749 2.75219 13.4963C2.71562 13.3177 2.74585 13.1322 2.83737 12.9735L5.98945 7.66373C6.0659 7.56216 6.16752 7.48125 6.28477 7.42862C6.40203 7.37599 6.53105 7.35335 6.65973 7.36284C6.74949 7.3461 6.84169 7.3461 6.93146 7.36284L10.8444 8.90267C11.6549 8.28082 12.5438 7.76331 13.4893 7.36284L14.0871 3.30975C14.1134 3.12682 14.207 2.95951 14.3503 2.83902C14.4937 2.71852 14.677 2.65308 14.866 2.65488H21.134ZM18 23.292C19.0749 23.292 20.1256 22.9806 21.0193 22.3972C21.913 21.8137 22.6096 20.9845 23.021 20.0142C23.4323 19.044 23.5399 17.9764 23.3302 16.9464C23.1205 15.9164 22.6029 14.9703 21.8429 14.2278C21.0828 13.4852 20.1145 12.9795 19.0602 12.7746C18.006 12.5697 16.9133 12.6749 15.9203 13.0768C14.9272 13.4786 14.0784 14.1592 13.4813 15.0324C12.8841 15.9056 12.5654 16.9321 12.5654 17.9823C12.5654 19.3905 13.1379 20.7411 14.1571 21.7368C15.1763 22.7326 16.5586 23.292 18 23.292ZM21.134 2.06723e-05H14.866C14.0372 -0.00279538 13.2342 0.282181 12.6005 0.80411C11.9667 1.32604 11.5434 2.05097 11.406 2.84958L11.0074 5.59293L10.5183 5.87612L7.96404 4.86727C7.54671 4.7133 7.1057 4.62951 6.65973 4.61948C6.03977 4.6243 5.4324 4.79093 4.9005 5.10211C4.3686 5.41329 3.9315 5.85773 3.63445 6.38939L0.500472 11.6991C0.0803259 12.403 -0.068428 13.2305 0.0810599 14.0322C0.230548 14.8338 0.668429 15.5569 1.31567 16.0708L3.50764 17.6991C3.50764 17.7876 3.50764 17.9823 3.50764 17.9823C3.50764 17.9823 3.50764 18.177 3.50764 18.2655L1.33378 19.9292C0.674515 20.4336 0.223615 21.1534 0.0638804 21.9565C-0.095854 22.7596 0.0463007 23.592 0.464241 24.3009L3.61633 29.6106C3.91338 30.1423 4.35048 30.5867 4.88239 30.8979C5.41429 31.2091 6.02166 31.3757 6.64161 31.3805C7.0822 31.375 7.51806 31.291 7.92781 31.1327L10.5002 30.1239L10.9893 30.4071L11.3697 33.0619C11.512 33.8692 11.9364 34.6033 12.5707 35.1391C13.2049 35.6748 14.0097 35.9791 14.8479 36H21.1159C21.9447 36.0028 22.7476 35.7178 23.3814 35.1959C24.0151 34.674 24.4385 33.949 24.5759 33.1504L24.9926 30.3717L25.4817 30.0885L28.036 31.0973C28.4524 31.2544 28.894 31.3383 29.3403 31.3451C29.9594 31.3366 30.5653 31.1685 31.0966 30.8577C31.6278 30.5469 32.0656 30.1045 32.3656 29.5752L35.4995 24.2655C35.9197 23.5616 36.0684 22.7341 35.9189 21.9324C35.7695 21.1308 35.3316 20.4077 34.6843 19.8938L32.4924 18.2655V17.6991L34.6662 16.0354C35.3255 15.531 35.7764 14.8112 35.9361 14.0081C36.0959 13.2051 35.9537 12.3726 35.5358 11.6637L32.3837 6.354C32.0866 5.82233 31.6495 5.3779 31.1176 5.06671C30.5857 4.75553 29.9783 4.5889 29.3584 4.58409C28.9178 4.58958 28.4819 4.67355 28.0722 4.83187L25.4998 5.84072L24.9926 5.59293L24.6121 2.93807C24.6033 2.89127 24.6033 2.84328 24.6121 2.79648C24.4412 2.01813 24.0068 1.31879 23.379 0.811383C22.7512 0.303978 21.9667 0.0181364 21.1521 2.06723e-05H21.134ZM18 20.6903C17.4518 20.6903 16.9159 20.5314 16.4601 20.2339C16.0043 19.9363 15.6491 19.5134 15.4393 19.0186C15.2295 18.5238 15.1746 17.9793 15.2816 17.454C15.3885 16.9287 15.6525 16.4462 16.0401 16.0675C16.4278 15.6888 16.9216 15.4309 17.4593 15.3264C17.9969 15.2219 18.5542 15.2755 19.0607 15.4805C19.5671 15.6854 20 16.0325 20.3046 16.4778C20.6091 16.9232 20.7717 17.4467 20.7717 17.9823C20.7717 18.7005 20.4797 19.3893 19.9599 19.8971C19.4401 20.405 18.7351 20.6903 18 20.6903Z" fill="white"/>
</svg>
